<svg width="237" height="74" viewBox="0 0 237 74" fill="none" xmlns="http://www.w3.org/2000/svg">
<path fill-rule="evenodd" clip-rule="evenodd" d="M23 4C26.9685 6.64567 30.2889 13.18 31.5894 17.0872C22.1356 20.8704 15.2492 29.4223 14.153 39.6331C12.757 38.7852 10.07 38.0002 7.87565 38C5.59766 37.9998 4.52389 39.5368 4.09867 40.8151C3.67346 42.0935 4.09835 54.6917 16.3746 53.7643C16.4125 53.7606 16.4501 53.7567 16.4874 53.7526C20.944 63.3299 30.9147 70 42.5 70C58.2401 70 71 57.6878 71 42.5C71 28.9544 60.8503 17.6962 47.4889 15.4199C47.3018 10.506 44.7833 6.7833 43.5 5.5C44.5 8.5 44.5 10.5 44.5 13.5C42.1 9.5 38.5 6 35 4.5C36.6667 7 39 11 39 13.5C36.5 10.5 31 4 23 4Z" fill="url(#paint0_linear)"/>
<path d="M14 47C13.6 46.6 13.5 44.8333 13.5 44C12.5 44 10 41.9999 9 41.5C10 43.5 12.5 45 12 45.5C11.5 46 10 45.5 8.50001 45L8.5 45C9 47 14.5 47.5 14 47Z" fill="#36356C"/>
<ellipse cx="39.25" cy="45" rx="2.25" ry="4" fill="#36356C"/>
<ellipse cx="60.6992" cy="44.5" rx="2" ry="3.5" fill="#36356C"/>
<path d="M30.0558 38.2361C26.7114 43.3371 28.59 50.4814 34.2517 54.1934L46.3628 35.7212C40.701 32.0092 33.4002 33.1351 30.0558 38.2361Z" fill="url(#paint1_linear)" fill-opacity="0.8"/>
<path d="M58.7374 38.7747C56.1211 42.7651 57.5319 48.3155 61.8886 51.1719L71.363 36.7212C67.0063 33.8649 61.3537 34.7842 58.7374 38.7747Z" fill="url(#paint2_linear)" fill-opacity="0.8"/>
<path fill-rule="evenodd" clip-rule="evenodd" d="M31.9703 58.1072L34 57C33 56.5 30.7006 55.8 29.5006 57C28.3006 58.2 28.3339 59.5 28.5006 60L30.3601 58.9856C36.4118 66.8444 46.5887 65.4507 51 63C42.5845 65.3376 34.6062 61.1178 31.9703 58.1072Z" fill="white"/>
<path fill-rule="evenodd" clip-rule="evenodd" d="M47.0505 12.3037C46.2329 8.95702 44.4951 6.49511 43.5 5.5C44.2416 7.72479 44.4332 9.39961 44.4827 11.3402C45.3485 11.6139 46.207 11.9333 47.0505 12.3037ZM42.6656 10.8327C40.4461 7.99313 37.6935 5.65434 35 4.5C36.0173 6.02601 37.2831 8.11091 38.1149 10.0724C39.6092 10.2167 41.1401 10.4606 42.6656 10.8327ZM35.7455 9.92158C33.0164 9.83517 30.4985 10.0496 28.4751 10.3703C26.9543 7.80599 25.0649 5.3766 23 4C28.4711 4 32.7729 7.04002 35.7455 9.92158Z" fill="white" fill-opacity="0.3"/>
<path fill-rule="evenodd" clip-rule="evenodd" d="M40.0004 53C44.971 53 49.0004 48.9706 49.0004 44C49.0004 39.0294 44.971 35 40.0004 35C35.0299 35 31.0004 39.0294 31.0004 44C31.0004 48.9706 35.0299 53 40.0004 53ZM51.8733 45.753C51.0249 51.5495 46.0324 56 40.0004 56C33.373 56 28.0004 50.6274 28.0004 44C28.0004 43.2586 28.0677 42.5329 28.1964 41.8286L14.5445 36.2721C13.8937 35.9088 12.3787 35.4727 11.5249 36.635C10.671 37.7973 9.48944 37.3764 9.00537 37.0206C8.52293 36.6649 8.21313 35.5137 9.64184 34.0465C12.8982 30.7024 17.6966 33.1452 24.2597 36.4864L24.2597 36.4865C25.7875 37.2643 27.411 38.0908 29.1329 38.9043C31.0492 34.8247 35.1949 32 40.0004 32C46.1786 32 51.2663 36.6689 51.9276 42.6709C52.9479 42.4883 54.1942 42.4223 55.5645 42.6224C56.1235 37.7688 60.2466 34 65.25 34C70.6348 34 75 38.3652 75 43.75C75 49.1348 70.6348 53.5 65.25 53.5C60.5303 53.5 56.5938 50.1464 55.6934 45.6921C54.0892 45.3504 52.7156 45.525 51.8733 45.753ZM72 43.75C72 47.4779 68.9779 50.5 65.25 50.5C61.5221 50.5 58.5 47.4779 58.5 43.75C58.5 40.0221 61.5221 37 65.25 37C68.9779 37 72 40.0221 72 43.75Z" fill="#36356C"/>
<path fill-rule="evenodd" clip-rule="evenodd" d="M228.846 41.4785C227.416 39.873 225.506 39.0703 223.115 39.0703C220.643 39.0703 218.545 40.0664 216.822 42.0586C217.115 40.2539 217.742 38.8125 218.703 37.7344C219.676 36.6445 221.129 35.8711 223.062 35.4141L225.488 34.8691C226.941 34.5293 227.996 33.9492 228.652 33.1289C229.32 32.3086 229.654 31.166 229.654 29.7012H226.982C226.982 30.4395 226.695 31.0195 226.121 31.4414C225.547 31.8633 224.439 32.2207 222.799 32.5137C219.904 33.0293 217.713 34.4648 216.225 36.8203C214.748 39.1758 214.01 42.3516 214.01 46.3477V47.9297C214.01 50.8008 214.789 53.0918 216.348 54.8027C217.906 56.502 219.963 57.3516 222.518 57.3516C224.205 57.3516 225.693 56.9648 226.982 56.1914C228.283 55.4062 229.279 54.3105 229.971 52.9043C230.662 51.4863 231.008 49.8809 231.008 48.0879V47.7891C231.008 45.1758 230.287 43.0723 228.846 41.4785ZM218.686 43.3594C219.623 42.2812 220.889 41.7422 222.482 41.7422C224.111 41.7422 225.395 42.2871 226.332 43.377C227.281 44.4551 227.756 45.8906 227.756 47.6836C227.756 49.9805 227.287 51.7266 226.35 52.9219C225.412 54.1172 224.135 54.7148 222.518 54.7148C220.912 54.7148 219.635 54.123 218.686 52.9395C217.748 51.7441 217.279 50.127 217.279 48.0879V47.8066C217.279 45.9082 217.748 44.4258 218.686 43.3594ZM161.012 48.8965H163.385L169.977 57H174.107L165.951 47.1211L173.475 37.9805H169.537L163.139 46.0312H161.012V37.9805H157.742V57H161.012V48.8965ZM192.494 57V37.9805H179.645L179.293 46.1191C179.164 49.0957 178.871 51.1348 178.414 52.2363C177.957 53.3379 177.201 53.9473 176.146 54.0645L175.215 54.1348V57H176.516C178.438 56.9414 179.838 56.209 180.717 54.8027C181.607 53.3965 182.158 51.0586 182.369 47.7891L182.756 40.6699H189.225V57H192.494ZM203.938 52.2363L208.367 37.9805H211.848L204.201 59.9355C203.018 63.0996 201.137 64.6816 198.559 64.6816L197.943 64.6289L196.73 64.4004V61.7637L197.609 61.834C198.711 61.834 199.566 61.6113 200.176 61.166C200.797 60.7207 201.307 59.9062 201.705 58.7227L202.426 56.7891L195.641 37.9805H199.191L203.938 52.2363ZM105.131 48.668C104.873 51.3984 103.865 53.5312 102.107 55.0664C100.35 56.5898 98.0117 57.3516 95.0938 57.3516C93.0547 57.3516 91.2559 56.8711 89.6973 55.9102C88.1504 54.9375 86.9551 53.5605 86.1113 51.7793C85.2676 49.998 84.8281 47.9297 84.793 45.5742V43.1836C84.793 40.7695 85.2207 38.6426 86.0762 36.8027C86.9316 34.9629 88.1562 33.5449 89.75 32.5488C91.3555 31.5527 93.207 31.0547 95.3047 31.0547C98.1289 31.0547 100.402 31.8223 102.125 33.3574C103.848 34.8926 104.85 37.0605 105.131 39.8613H100.701C100.49 38.0215 99.9512 36.6973 99.084 35.8887C98.2285 35.0684 96.9688 34.6582 95.3047 34.6582C93.3711 34.6582 91.8828 35.3672 90.8398 36.7852C89.8086 38.1914 89.2812 40.2598 89.2578 42.9902V45.2578C89.2578 48.0234 89.75 50.1328 90.7344 51.5859C91.7305 53.0391 93.1836 53.7656 95.0938 53.7656C96.8398 53.7656 98.1523 53.373 99.0312 52.5879C99.9102 51.8027 100.467 50.4961 100.701 48.668H105.131ZM129.441 57H125.012V45.627H113.568V57H109.121V31.4062H113.568V42.0586H125.012V31.4062H129.441V57ZM144.699 34.9922H152.68V31.4062H132.377V34.9922H140.287V57H144.699V34.9922Z" fill="#333333"/>
<defs>
<linearGradient id="paint0_linear" x1="58.5312" y1="63.7903" x2="30.2184" y2="6.89132" gradientUnits="userSpaceOnUse">
<stop stop-color="#4B8CFD"/>
<stop offset="1" stop-color="#69D9FC"/>
</linearGradient>
<linearGradient id="paint1_linear" x1="41.237" y1="32.3606" x2="29.126" y2="50.8328" gradientUnits="userSpaceOnUse">
<stop stop-color="white"/>
<stop offset="1" stop-color="white" stop-opacity="0"/>
</linearGradient>
<linearGradient id="paint2_linear" x1="67.4188" y1="34.1353" x2="57.9444" y2="48.5859" gradientUnits="userSpaceOnUse">
<stop stop-color="white"/>
<stop offset="1" stop-color="white" stop-opacity="0"/>
</linearGradient>
</defs>
</svg>
