<svg width="17" height="24" viewBox="0 0 17 24" fill="none" xmlns="http://www.w3.org/2000/svg">
<path fill-rule="evenodd" clip-rule="evenodd" d="M8.5 0C13.194 0 17 3.82216 17 8.53616C17 13.2502 11.9254 19.4293 8.94403 23.7611C8.75373 24.0796 8.3097 24.0796 8.05597 23.7611C5.13806 19.4293 0 13.2502 0 8.53616C0 3.82216 3.80597 0 8.5 0ZM8.5 4.45919C10.7836 4.45919 12.6231 6.30657 12.6231 8.53616C12.6231 10.8295 10.7836 12.6768 8.5 12.6768C6.27985 12.6768 4.4403 10.8295 4.4403 8.53616C4.4403 6.30657 6.27985 4.45919 8.5 4.45919Z" fill="#339FCD"/>
</svg>
